<?xml version="1.0" standalone="no"?>
<!DOCTYPE svg PUBLIC "-//W3C//DTD SVG 20010904//EN"
 "http://www.w3.org/TR/2001/REC-SVG-20010904/DTD/svg10.dtd">
<svg version="1.0" xmlns="http://www.w3.org/2000/svg"
 width="1024.000000pt" height="1024.000000pt" viewBox="0 0 1024.000000 1024.000000"
 preserveAspectRatio="xMidYMid meet">

<g transform="translate(0.000000,1024.000000) scale(0.100000,-0.100000)"
fill="#000000" stroke="none">
<path d="M0 5120 l0 -5120 5120 0 5120 0 0 5120 0 5120 -5120 0 -5120 0 0
-5120z m2783 3633 c-13 -2 -33 -2 -45 0 -13 2 -3 4 22 4 25 0 35 -2 23 -4z
m640 0 c-13 -2 -33 -2 -45 0 -13 2 -3 4 22 4 25 0 35 -2 23 -4z m-1151 -59
c78 -1 125 2 113 6 -38 16 98 10 144 -5 38 -14 132 -15 730 -11 377 3 721 7
763 8 43 2 78 2 78 0 0 -2 -7 -17 -16 -34 -13 -25 -17 -78 -22 -274 -6 -275 2
-254 -94 -254 l-48 0 0 58 c0 46 4 63 20 77 17 15 20 31 20 95 0 61 3 79 15
84 20 7 54 83 55 119 0 37 -40 77 -79 77 -31 0 -81 -47 -81 -76 0 -12 -34 -14
-200 -14 -134 0 -200 -3 -200 -11 0 -7 64 -9 200 -8 l201 2 34 -33 c35 -34 35
-34 35 -126 0 -67 -4 -95 -14 -103 -10 -8 -16 -39 -18 -96 -3 -96 -5 -95 94
-95 60 0 73 -8 63 -40 -5 -17 -15 -20 -66 -20 -46 0 -59 -3 -59 -15 0 -12 13
-15 60 -15 l60 0 0 -30 0 -30 -65 0 c-51 0 -65 -3 -65 -15 0 -12 14 -15 65
-15 l65 0 0 -280 0 -280 -49 0 c-49 0 -64 9 -74 45 -3 11 -4 1 -1 -22 5 -33 2
-44 -10 -49 -14 -6 -16 -74 -16 -680 0 -443 3 -674 10 -674 7 0 10 226 10 659
l0 658 38 7 c60 10 102 7 102 -6 0 -7 3 -23 6 -35 5 -17 2 -23 -10 -23 -14 0
-16 -47 -18 -462 -2 -255 0 -468 4 -473 4 -6 8 -37 10 -69 l3 -59 34 32 c26
24 31 35 23 43 -7 7 -12 29 -12 50 0 31 -4 38 -20 38 -22 0 -26 20 -9 53 14
26 180 198 263 270 40 35 57 45 52 31 -5 -15 11 -39 74 -104 43 -47 79 -90 80
-95 0 -10 -707 -709 -756 -747 l-23 -19 0 1273 c0 1182 3 1374 24 1421 7 16
-4 17 -140 17 -135 0 -147 -1 -152 -19 -4 -17 -14 -18 -98 -15 -57 2 -97 0
-100 -7 -5 -7 -11 -6 -21 2 -8 6 -25 8 -39 5 -18 -5 -25 -2 -25 9 0 8 -12 18
-26 21 -26 7 -184 -3 -210 -13 -11 -4 -14 8 -14 61 l0 66 81 0 c65 0 89 -4
118 -21 l36 -21 -33 31 c-31 29 -37 31 -112 31 -43 0 -82 5 -85 10 -3 6 -20
10 -36 10 -40 0 -59 -38 -35 -71 14 -21 24 -110 10 -97 -3 4 -19 2 -35 -2 -36
-11 -38 -4 -42 140 l-3 105 -2 -115 c-1 -63 -6 -119 -10 -125 -4 -5 -22 -10
-39 -11 l-33 -1 -2 56 c-1 50 -2 51 -5 14 l-4 -43 -160 0 -160 0 8 -22 c4 -13
7 -353 6 -757 l-2 -734 24 -19 c27 -21 34 -44 11 -35 -24 9 -38 -17 -25 -45 9
-20 7 -32 -8 -61 l-18 -36 -55 25 c-30 14 -69 36 -87 50 -20 15 -45 24 -67 24
-24 0 -38 6 -45 18 -6 11 -10 357 -10 919 -1 780 -3 904 -16 929 -16 32 -20
58 -5 34 7 -12 36 -15 142 -16z m-79 9 c-7 -2 -21 -2 -30 0 -10 3 -4 5 12 5
17 0 24 -2 18 -5z m760 -10 c-7 -2 -19 -2 -25 0 -7 3 -2 5 12 5 14 0 19 -2 13
-5z m5892 -23 c4 -6 0 -21 -8 -33 -8 -12 -543 -553 -1189 -1201 -938 -942
-1178 -1178 -1193 -1172 -15 5 -16 4 -5 -9 11 -13 -51 -79 -451 -473 l-463
-458 64 -74 c36 -41 88 -99 116 -129 27 -31 97 -110 154 -176 58 -66 143 -163
190 -215 47 -52 148 -167 225 -255 76 -88 207 -236 290 -330 83 -93 248 -282
366 -419 118 -137 285 -332 372 -432 86 -101 157 -189 157 -196 0 -15 -70 -88
-85 -87 -5 0 -109 115 -230 255 -121 140 -229 265 -240 278 -180 208 -484 557
-568 650 -127 142 -726 824 -745 848 -12 15 -12 20 2 33 31 32 11 85 -32 85
-31 -1 -62 -21 -62 -40 0 -7 20 -32 43 -54 24 -23 172 -187 328 -366 156 -178
316 -358 354 -400 39 -41 111 -122 160 -179 50 -58 141 -164 203 -235 62 -72
161 -187 220 -255 59 -69 188 -217 287 -329 99 -113 193 -221 209 -241 16 -20
57 -65 90 -101 34 -36 120 -135 193 -220 138 -163 173 -200 173 -183 0 11 -38
57 -121 148 -25 27 -87 99 -139 158 l-93 109 57 56 c31 32 54 50 51 42 -4 -10
33 -59 106 -140 61 -69 145 -164 185 -211 l73 -87 -92 -96 -92 -96 -43 52
c-24 29 -81 91 -126 138 -82 85 -306 334 -360 400 -16 19 -99 113 -185 209
-86 96 -194 220 -241 276 -47 56 -134 158 -195 227 -60 69 -188 218 -284 332
-96 113 -177 206 -181 206 -3 0 -11 -5 -16 -10 -7 -7 -20 1 -40 22 -16 18 -19
24 -6 14 43 -37 30 -10 -30 59 -103 120 -486 551 -638 720 -80 88 -165 184
-189 213 l-44 53 84 77 c77 71 442 424 585 566 819 815 2421 2416 2419 2418
-2 2 -368 1 -813 -2 l-811 -5 -353 -347 c-194 -190 -356 -350 -360 -354 -4 -4
-27 -7 -50 -8 -40 -1 -43 -3 -49 -36 -8 -38 -9 -39 -789 -796 l-375 -364 -44
45 -45 44 161 158 c89 87 191 185 227 218 35 33 227 220 426 415 281 275 368
355 389 356 53 2 61 4 61 13 0 6 -19 10 -42 9 -41 0 -49 -6 -168 -122 -69 -67
-197 -191 -285 -276 -88 -85 -228 -221 -310 -302 -135 -132 -175 -165 -175
-140 0 4 -20 21 -45 37 -24 17 -45 33 -45 36 0 3 33 37 73 74 63 60 380 364
516 495 26 25 121 115 211 200 220 208 428 409 794 768 l155 152 1185 0 c812
0 1187 -3 1191 -10z m-4869 -91 c8 -14 -21 -43 -35 -35 -8 5 -8 13 -1 27 12
21 25 25 36 8z m3638 -392 c18 4 26 1 26 -9 0 -8 7 -30 16 -47 18 -37 14 -89
-10 -126 -35 -53 -125 -68 -182 -30 -56 37 -79 115 -47 162 11 15 18 34 15 42
-3 10 2 12 21 7 18 -4 27 -1 31 11 5 11 10 13 17 6 12 -12 56 -5 66 10 4 6 9
2 14 -10 6 -16 14 -19 33 -16z m-4939 -7 c3 -5 14 -10 25 -10 16 0 18 -15 25
-177 10 -241 4 -359 -21 -378 -11 -8 -21 -15 -24 -15 -3 0 -3 125 -1 279 l3
278 -22 6 c-12 3 -19 10 -15 16 8 14 22 14 30 1z m1005 -19 c0 -5 -6 -14 -14
-20 -16 -13 -32 2 -21 19 8 12 35 13 35 1z m-532 -68 l-3 -58 -60 0 c-50 0
-60 3 -63 19 -4 17 1 18 42 12 l46 -7 0 30 c0 36 11 34 -192 31 -76 -1 -118 2
-118 9 0 10 29 12 253 19 l98 3 -3 -58z m227 36 c5 -5 -33 -9 -98 -9 -79 0
-107 3 -107 13 0 14 189 11 205 -4z m169 -48 c9 -54 2 -70 -31 -71 -14 0 -17
47 -7 99 10 46 28 32 38 -28z m146 -11 c0 -47 -2 -50 -25 -50 -22 0 -25 4 -25
40 0 27 6 42 18 49 29 17 32 13 32 -39z m3060 -5 c0 -8 -2 -15 -4 -15 -2 0 -6
7 -10 15 -3 8 -1 15 4 15 6 0 10 -7 10 -15z m90 4 c0 -6 -7 -9 -15 -5 -9 3
-15 0 -15 -9 0 -8 -4 -15 -10 -15 -14 0 -13 13 2 28 15 15 38 16 38 1z m-3830
-13 c0 -10 -21 -16 -79 -21 -79 -7 -121 -2 -121 15 0 12 33 17 123 19 60 1 77
-2 77 -13z m380 -1 c0 -12 -18 -15 -105 -15 -96 0 -117 5 -98 23 3 4 51 7 105
7 80 0 98 -3 98 -15z m3248 -46 c18 -6 41 -26 53 -46 19 -31 20 -39 10 -74
-21 -71 -109 -93 -162 -40 -49 49 -30 135 35 161 28 12 28 12 64 -1z m-3708
-114 c0 -33 -2 -35 -35 -35 -32 0 -35 3 -35 28 0 36 6 42 42 42 25 0 28 -3 28
-35z m200 -15 c0 -43 -3 -50 -20 -50 -17 0 -20 7 -20 50 0 43 3 50 20 50 17 0
20 -7 20 -50z m220 20 c0 -28 -3 -30 -35 -30 -32 0 -35 2 -35 30 0 28 3 30 35
30 32 0 35 -2 35 -30z m67 8 c-3 -8 -6 -5 -6 6 -1 11 2 17 5 13 3 -3 4 -12 1
-19z m133 -19 c0 -15 -4 -19 -16 -15 -9 3 -24 6 -35 6 -10 0 -19 7 -19 15 0
10 11 15 35 15 29 0 35 -4 35 -21z m123 0 c-5 -17 -12 -20 -47 -17 -29 2 -42
8 -44 21 -3 14 4 17 46 17 46 0 50 -2 45 -21z m-133 -49 c0 -5 -13 -10 -30
-10 -16 0 -30 5 -30 10 0 6 14 10 30 10 17 0 30 -4 30 -10z m120 0 c0 -5 -17
-10 -37 -9 -31 0 -34 2 -18 9 28 12 55 12 55 0z m3257 -22 c-3 -7 -5 -2 -5 12
0 14 2 19 5 13 2 -7 2 -19 0 -25z m-70 0 c-3 -8 -6 -5 -6 6 -1 11 2 17 5 13 3
-3 4 -12 1 -19z m-3926 -1 c-1 -4 -1 -20 -1 -37 0 -25 -4 -30 -24 -30 -20 0
-25 6 -28 35 -3 28 0 35 17 38 26 5 37 3 36 -6z m425 -9 c-3 -13 -6 -31 -6
-40 0 -12 -8 -18 -24 -18 -21 0 -24 6 -28 40 -3 40 -3 40 30 40 31 0 34 -2 28
-22z m-371 2 c-3 -5 -11 -10 -16 -10 -6 0 -7 5 -4 10 3 6 11 10 16 10 6 0 7
-4 4 -10z m3925 6 c0 -2 -7 -7 -16 -10 -8 -3 -12 -2 -9 4 6 10 25 14 25 6z
m-3665 -16 c3 -5 1 -10 -4 -10 -6 0 -11 5 -11 10 0 6 2 10 4 10 3 0 8 -4 11
-10z m305 -5 c0 -9 -9 -15 -24 -15 -28 0 -43 16 -24 23 26 11 48 7 48 -8z
m129 -77 c2 -97 -3 -108 -45 -100 -23 4 -24 8 -24 73 0 39 4 69 10 69 6 0 10
-9 10 -20 0 -13 7 -20 18 -20 15 0 17 6 14 35 -4 34 -24 47 -38 24 -4 -8 -9
-7 -15 2 -6 10 0 16 24 20 17 4 35 7 38 8 4 0 7 -40 8 -91z m-129 16 c0 -21
-4 -34 -11 -32 -6 2 -10 7 -10 11 1 4 1 18 1 32 0 14 5 25 10 25 6 0 10 -16
10 -36z m2941 -5 c13 -26 7 -24 -22 7 -17 19 -19 23 -6 18 10 -3 22 -15 28
-25z m427 14 c-10 -2 -26 -2 -35 0 -10 3 -2 5 17 5 19 0 27 -2 18 -5z m-4088
-263 c0 -277 2 -289 65 -366 21 -25 59 -54 92 -70 49 -24 68 -28 152 -28 112
-1 171 21 221 82 19 24 30 31 30 20 0 -22 -64 -77 -119 -101 -36 -16 -67 -20
-146 -20 -117 0 -170 18 -232 80 -75 75 -77 85 -81 386 -3 189 -1 267 7 267 8
0 11 -76 11 -250z m3935 240 c-3 -5 -14 -10 -23 -10 -15 0 -15 2 -2 10 20 13
33 13 25 0z m-3321 -217 c4 -120 3 -231 -2 -248 -6 -21 -11 39 -16 195 -4 124
-10 235 -13 248 -4 15 -1 22 10 22 12 0 16 -34 21 -217z m3020 194 c6 -9 7
-19 3 -23 -9 -9 -37 15 -37 33 0 18 20 12 34 -10z m800 15 c3 -5 -55 -69 -129
-142 -101 -100 -135 -128 -135 -113 0 33 225 262 257 263 1 0 4 -4 7 -8z
m-3754 -12 c0 -5 -4 -10 -10 -10 -5 0 -10 5 -10 10 0 6 5 10 10 10 6 0 10 -4
10 -10z m43 -42 c8 -29 1 -38 -29 -38 -19 0 -24 5 -24 24 0 22 8 29 41 35 4 0
9 -9 12 -21z m3209 -13 c-5 -29 -37 -52 -47 -34 -4 5 -4 21 -1 35 5 17 13 24
30 24 19 0 22 -4 18 -25z m-3537 0 c-5 -2 -68 -5 -140 -7 -71 -3 -114 -1 -95
2 35 7 254 12 235 5z m105 -20 c0 -17 -11 -20 -25 -6 -6 5 -23 11 -40 14 -21
3 -16 4 18 6 36 1 47 -3 47 -14z m3083 -104 c79 -80 97 -104 97 -128 0 -25
-32 -61 -220 -249 -121 -120 -231 -225 -244 -233 -29 -18 -33 -14 -160 117
l-90 92 249 250 c137 138 254 250 260 250 6 0 55 -44 108 -99z m-3209 39 c94
-35 133 -160 81 -261 -49 -94 -199 -119 -290 -47 -32 25 -65 88 -65 125 0 143
138 235 274 183z m3436 -10 c31 -31 26 -65 -12 -83 -28 -14 -36 -14 -53 -3
-30 20 -32 70 -3 90 30 21 44 20 68 -4z m-3962 -116 c0 -15 -4 -22 -10 -16 -5
5 -6 16 -2 25 9 23 12 21 12 -9z m42 16 c0 -5 -5 -10 -11 -10 -5 0 -7 5 -4 10
3 6 8 10 11 10 2 0 4 -4 4 -10z m-5 -30 c-3 -5 -11 -10 -16 -10 -6 0 -7 5 -4
10 3 6 11 10 16 10 6 0 7 -4 4 -10z m875 -21 c0 -5 -5 -7 -10 -4 -6 3 -14 -4
-19 -17 -9 -22 -10 -22 -10 -2 -1 11 2 24 6 27 10 11 33 8 33 -4z m-862 -91
c-2 -17 -10 -23 -28 -23 -18 0 -26 6 -28 23 -3 19 1 22 28 22 27 0 31 -3 28
-22z m880 -106 c3 -48 2 -52 -20 -52 -22 0 -23 3 -20 56 3 45 7 55 20 52 13
-2 18 -16 20 -56z m100 6 c-3 -43 -6 -52 -24 -54 -18 -3 -23 3 -28 34 -11 66
-9 72 25 72 30 0 30 0 27 -52z m-1008 -12 c0 -27 -28 -43 -36 -21 -9 21 3 45
21 45 9 0 15 -9 15 -24z m2950 4 c0 -5 -5 -10 -11 -10 -5 0 -7 5 -4 10 3 6 8
10 11 10 2 0 4 -4 4 -10z m917 -16 c16 -26 16 -27 -5 -45 -27 -21 -48 -16 -58
13 -5 16 -8 18 -15 7 -7 -11 -9 -9 -9 7 0 48 59 60 87 18z m-3087 -3 c0 -12
-29 -41 -41 -41 -14 0 -11 11 8 32 17 19 33 24 33 9z m3212 -97 c-29 -20 -28
-42 3 -56 14 -6 25 -17 25 -24 0 -15 -43 -29 -59 -19 -15 9 -14 35 2 35 9 0 9
2 -1 9 -8 4 -14 12 -14 16 0 11 55 65 61 60 2 -3 -5 -12 -17 -21z m-264 -20
c26 -18 28 -41 5 -66 -29 -32 -73 -17 -73 26 0 19 26 56 39 56 4 0 17 -7 29
-16z m-2853 -29 c0 -11 -8 -21 -17 -23 -14 -3 -18 3 -18 23 0 20 4 26 18 23 9
-2 17 -12 17 -23z m-918 -32 c-3 -10 -5 -4 -5 12 0 17 2 24 5 18 2 -7 2 -21 0
-30z m73 33 c0 -2 3 -11 6 -20 4 -12 0 -16 -15 -16 -14 0 -21 6 -21 20 0 11 7
20 15 20 8 0 15 -2 15 -4z m-111 -20 c9 -11 7 -15 -8 -19 -22 -5 -31 0 -31 20
0 17 24 17 39 -1z m1101 -43 c0 -10 -23 -13 -95 -13 -78 0 -95 3 -95 15 0 13
16 15 95 13 71 -1 95 -5 95 -15z m1073 -58 l28 -18 -147 -148 -147 -147 -43
46 c-24 26 -43 50 -44 54 0 3 46 51 101 105 56 54 118 115 137 136 l36 37 25
-24 c14 -13 39 -31 54 -41z m1537 0 c14 -15 21 -31 17 -45 -3 -11 -1 -18 4
-14 13 8 11 -23 -3 -45 -9 -15 -7 -25 10 -53 21 -34 21 -34 2 -66 -21 -33 -54
-52 -94 -52 -28 0 -80 53 -100 101 -15 35 -14 39 7 70 26 39 54 46 94 26 23
-12 30 -13 41 -1 16 17 16 32 0 16 -14 -14 -32 -16 -24 -3 3 4 -2 17 -10 27
-15 19 -15 19 -10 0 6 -16 4 -17 -9 -6 -30 25 -11 70 30 70 12 0 32 -11 45
-25z m229 -1 c18 -16 18 -17 -2 -55 -11 -22 -24 -39 -29 -39 -10 0 -11 94 -1
103 9 10 10 9 32 -9z m-3586 -39 c4 -8 2 -17 -3 -20 -6 -4 -10 1 -10 9 0 9 -7
16 -15 16 -8 0 -14 -3 -14 -7 1 -5 1 -18 0 -31 -1 -26 -21 -20 -21 7 0 36 52
57 63 26z m356 1 c23 -27 -27 -82 -52 -57 -8 8 -4 11 16 11 22 0 27 5 27 24 0
15 -7 26 -17 29 -15 4 -15 5 -2 6 9 0 22 -5 28 -13z m-239 -18 c-1 -21 -2 -21
-11 -5 -12 21 -29 13 -29 -13 0 -14 5 -18 18 -14 14 5 14 4 2 -4 -19 -14 -40
3 -40 34 0 20 5 24 30 24 25 0 30 -4 30 -22z m108 2 c4 -12 2 -13 -9 -2 -22
20 -32 14 -27 -18 5 -32 -6 -41 -16 -14 -11 28 3 55 27 52 11 -2 22 -10 25
-18z m79 -12 c-3 -7 -5 -2 -5 12 0 14 2 19 5 13 2 -7 2 -19 0 -25z m2584 -91
c-5 -25 -12 -32 -30 -32 -13 0 -29 8 -35 18 -9 15 -6 22 19 42 37 30 55 19 46
-28z m-2283 -3 c35 -40 26 -96 -19 -114 -80 -34 -140 70 -74 128 32 27 59 23
93 -14z m-1248 -14 c47 -22 90 -40 96 -40 5 0 26 -16 45 -36 l34 -35 -27 6
c-24 6 -28 4 -28 -13 0 -11 7 -25 16 -33 13 -11 13 -14 1 -21 -8 -4 -18 -24
-21 -43 -4 -19 -12 -35 -19 -35 -17 0 -84 37 -126 70 -21 16 -57 31 -86 36
l-50 9 -3 73 -3 72 -39 6 c-68 11 -44 24 43 24 75 0 90 -4 167 -40z m457 18
c34 -38 37 -75 9 -103 -62 -62 -152 6 -112 84 25 47 70 55 103 19z m3201 -78
c21 -25 28 -41 21 -46 -12 -7 -69 53 -69 74 0 21 14 13 48 -28z m-258 -31 c0
-5 -7 -9 -15 -9 -15 0 -20 12 -9 23 8 8 24 -1 24 -14z m90 -10 c6 -10 9 -19 6
-19 -9 0 -36 31 -36 41 0 14 18 1 30 -22z m-2614 -3 c1 0 4 -22 6 -48 l6 -48
-122 1 c-66 1 -109 4 -93 6 25 4 27 8 27 47 0 23 3 45 6 48 4 5 165 -1 170 -6z
m2538 -27 c-3 -5 -10 -7 -15 -3 -5 3 -7 10 -3 15 3 5 10 7 15 3 5 -3 7 -10 3
-15z m-306 -161 c131 -135 162 -172 162 -195 0 -22 -20 -47 -107 -128 -59 -55
-192 -183 -296 -285 -137 -134 -195 -185 -212 -185 -17 0 -62 40 -169 153 -81
85 -146 162 -146 172 0 37 23 33 64 -11 22 -24 89 -95 149 -158 l109 -114 176
174 c98 96 219 214 270 263 51 49 91 93 90 97 -7 17 -290 300 -298 297 -5 -2
-104 -95 -222 -209 -264 -254 -295 -282 -335 -303 -37 -19 -50 -48 -31 -75 38
-54 329 -341 346 -341 12 0 117 97 267 245 136 135 269 261 296 280 58 41 55
24 -4 -24 -39 -31 -105 -93 -428 -408 -175 -169 -149 -173 -378 60 -157 158
-181 186 -181 214 0 36 -5 31 228 248 88 83 216 207 284 278 169 174 150 176
366 -45z m467 115 l37 -43 -30 0 c-24 0 -34 7 -52 36 -19 34 -21 80 -1 58 4
-5 25 -28 46 -51z m203 16 c18 -22 20 -29 8 -29 -8 0 -22 10 -30 22 -32 46
-13 52 22 7z m-2678 -31 c15 -21 17 -28 6 -19 -16 13 -41 51 -33 51 2 0 14
-15 27 -32z m-748 -20 c-9 -9 -12 -7 -12 12 0 19 3 21 12 12 9 -9 9 -15 0 -24z
m-319 -23 c46 -24 96 -59 112 -76 26 -28 27 -30 7 -19 -13 6 -26 10 -28 7 -6
-6 -12 -851 -13 -1910 l-1 -928 -57 3 -58 3 -5 1115 -5 1115 28 27 c53 51 22
138 -49 138 -39 0 -74 -38 -74 -82 0 -31 38 -78 65 -78 13 0 15 -121 15 -1170
l0 -1170 -25 0 c-33 0 -35 -37 -2 -42 l22 -3 5 -770 c3 -423 9 -763 13 -754 5
9 7 98 5 198 l-3 181 62 0 63 0 2 -182 3 -183 662 1 c365 0 666 4 670 8 5 4 9
85 9 179 l2 172 66 3 66 3 0 -190 c0 -116 4 -192 10 -196 7 -4 10 245 10 739
0 491 -3 746 -10 746 -7 0 -10 -183 -10 -530 l0 -530 -65 0 -65 0 0 233 c0
127 -1 398 -3 601 l-2 369 40 2 c22 0 57 2 78 3 l37 2 0 258 c0 257 0 257 22
267 13 6 32 24 42 40 l20 30 170 -3 c162 -4 172 -5 198 -27 16 -13 35 -22 42
-19 9 3 38 -23 78 -69 34 -40 142 -163 238 -272 l174 -198 -49 -44 -50 -44
-67 73 c-37 40 -147 163 -245 273 -125 140 -186 201 -203 204 -14 1 -76 0
-138 -4 l-113 -7 1 -1147 c1 -630 1 -1156 1 -1168 l-1 -23 -485 0 -485 0 0 60
0 60 99 0 c83 0 102 -3 124 -20 30 -24 45 -25 68 -4 14 12 59 16 247 21 l230
6 16 -31 c29 -57 90 -69 131 -27 54 53 20 135 -57 135 -30 0 -42 -6 -60 -30
l-22 -30 -242 0 c-202 0 -244 2 -254 15 -16 19 -46 19 -54 0 -4 -13 -71 -15
-476 -17 -258 -2 -470 1 -470 5 0 15 -53 57 -71 57 -60 0 -101 -57 -79 -110
23 -57 93 -69 129 -24 12 15 21 32 21 38 0 8 95 12 339 14 l339 2 6 -22 c3
-13 6 -40 6 -61 l0 -37 -442 2 -443 3 -5 2193 c-4 1934 -7 2194 -20 2203 -8 5
-28 13 -45 17 -19 4 19 9 105 12 l135 5 3 115 3 116 -56 27 c-30 15 -71 27
-89 27 -38 0 -45 13 -47 90 -1 25 -3 37 -6 27 -4 -17 -5 -17 -21 1 -10 10 -26
22 -37 27 -16 7 -12 10 25 15 119 18 155 13 243 -35z m3733 23 c16 -12 30 -22
31 -22 0 -1 4 -17 8 -36 6 -32 2 -40 -42 -87 -51 -56 -93 -78 -130 -68 -26 6
-53 52 -53 88 0 33 44 75 87 83 27 5 37 13 45 35 12 35 17 35 54 7z m-2863
-57 c3 -12 -1 -22 -10 -25 -26 -10 -233 -7 -233 4 0 5 7 7 15 4 10 -4 15 0 15
15 0 20 5 21 104 21 94 0 104 -2 109 -19z m2029 -49 c7 -11 48 -57 91 -103 78
-84 105 -119 90 -119 -11 0 -161 148 -180 178 -17 25 -38 29 -46 8 -3 -7 32
-49 85 -100 81 -79 89 -89 75 -103 -14 -14 -18 -11 -42 25 -27 41 -72 79 -88
74 -5 -1 -5 2 -2 9 4 6 -5 24 -21 40 -20 21 -34 27 -48 23 -16 -5 -11 4 19 39
22 25 43 46 47 46 4 1 13 -7 20 -17z m-2406 -67 c13 -20 14 -28 4 -40 -16 -19
-49 -19 -56 -1 -5 12 21 66 32 66 2 0 11 -11 20 -25z m582 -7 c14 -14 -2 -48
-23 -48 -15 0 -30 35 -20 50 8 13 28 13 43 -2z m-238 -24 c68 -20 160 -108
178 -170 20 -68 15 -139 -14 -199 -81 -173 -319 -208 -447 -65 -51 56 -70 102
-71 175 -1 84 24 145 84 198 79 71 168 91 270 61z m1950 6 c0 -5 -10 -15 -22
-21 -23 -12 -23 -12 -4 10 21 23 26 26 26 11z m44 -36 c3 -8 12 -14 21 -14 8
0 15 -7 15 -15 0 -8 16 -27 35 -42 19 -15 35 -31 35 -35 0 -18 -29 -6 -53 22
-15 17 -32 30 -37 30 -6 0 -10 7 -10 15 0 8 -11 22 -25 31 -14 9 -22 20 -20
25 8 11 32 1 39 -17z m-2884 -18 c0 -8 -17 -16 -46 -20 -79 -10 -94 -8 -94 14
0 18 7 20 70 20 52 0 70 -3 70 -14z m2780 -6 c0 -5 -4 -10 -10 -10 -5 0 -10 5
-10 10 0 6 5 10 10 10 6 0 10 -4 10 -10z m45 0 c3 -5 2 -10 -4 -10 -5 0 -13 5
-16 10 -3 6 -2 10 4 10 5 0 13 -4 16 -10z m-2415 -4 c0 -3 -4 -8 -10 -11 -5
-3 -10 -1 -10 4 0 6 5 11 10 11 6 0 10 -2 10 -4z m2467 -54 c0 -24 -4 -28 -23
-24 -19 3 -22 8 -14 22 5 10 15 21 22 23 7 3 13 6 14 6 0 1 1 -12 1 -27z
m-2882 -37 c0 -18 -8 -20 -72 -23 -67 -3 -73 -1 -73 17 0 26 14 30 85 28 53
-2 60 -4 60 -22z m2695 15 c0 -5 -4 -10 -10 -10 -5 0 -10 5 -10 10 0 6 5 10
10 10 6 0 10 -4 10 -10z m230 -36 c0 -7 -8 -18 -18 -23 -15 -8 -17 -5 -16 17
1 15 3 28 3 29 3 9 31 -12 31 -23z m106 -1 c-7 -7 -26 7 -26 19 0 6 6 6 15 -2
9 -7 13 -15 11 -17z m-188 -22 c27 -28 52 -66 52 -76 0 -15 -18 -1 -35 28 -10
17 -27 38 -37 45 -17 13 -25 32 -12 32 3 0 18 -13 32 -29z m-2398 4 c7 -9 10
-18 6 -22 -3 -4 -12 2 -20 12 -8 11 -18 15 -26 10 -9 -5 -11 -4 -6 3 10 17 31
15 46 -3z m2116 -33 l-39 -37 33 42 c18 24 36 41 39 38 3 -3 -12 -22 -33 -43z
m234 25 c0 -2 -9 -12 -20 -22 -24 -21 -27 -14 -4 9 15 15 24 20 24 13z m-1569
-42 c11 4 19 2 19 -4 0 -6 -11 -11 -25 -11 -20 0 -25 5 -24 23 1 17 2 18 6 4
3 -12 10 -16 24 -12z m1609 -25 c-12 -23 -40 -27 -40 -6 0 8 10 17 23 19 12 2
23 5 25 6 1 0 -2 -8 -8 -19z m654 -21 l21 -17 -28 -13 c-40 -18 -54 -1 -37 42
9 20 16 27 18 19 3 -8 15 -22 26 -31z m-785 14 c-21 -28 -81 -84 -85 -80 -6 5
80 97 90 97 5 0 3 -8 -5 -17z m-2249 -2 c0 -5 -9 -7 -20 -4 -11 3 -20 7 -20 9
0 2 9 4 20 4 11 0 20 -4 20 -9z m2470 -26 c0 -8 -4 -15 -10 -15 -5 0 -10 7
-10 15 0 8 5 15 10 15 6 0 10 -7 10 -15z m-2471 -11 c6 -6 -28 -54 -39 -54 -5
0 -12 5 -15 10 -3 6 3 10 14 10 12 0 21 7 21 15 0 8 -9 15 -20 15 -11 0 -20 5
-20 11 0 10 48 5 59 -7z m2938 -69 c-32 -32 -32 -32 -49 -13 -17 20 -16 38 2
38 5 0 7 -7 4 -15 -9 -22 9 -18 24 5 10 17 10 20 -5 20 -16 1 -16 2 1 15 17
13 22 13 37 -1 17 -16 17 -18 -14 -49z m-514 42 c-16 -26 -103 -99 -103 -86 0
7 21 32 48 56 47 42 70 55 55 30z m-228 -77 c0 -7 -6 -15 -12 -17 -8 -3 -13 4
-13 17 0 13 5 20 13 18 6 -3 12 -11 12 -18z m-2642 -4 c7 -16 -1 -26 -20 -26
-7 0 -13 9 -13 20 0 23 25 27 33 6z m425 -16 c3 -8 0 -10 -7 -6 -7 4 -19 2
-28 -6 -15 -12 -15 -11 -4 10 13 24 32 25 39 2z m2892 -10 c7 0 -6 -14 -30
-31 -34 -24 -44 -28 -51 -17 -15 23 -10 38 14 35 18 -2 21 2 18 23 -3 24 -2
24 16 8 11 -10 26 -18 33 -18z m-726 5 c11 -8 16 -18 12 -22 -3 -4 -16 3 -28
15 -25 25 -13 29 16 7z m-614 -20 c0 -9 -6 -12 -15 -9 -8 4 -15 10 -15 15 0 5
7 9 15 9 8 0 15 -7 15 -15z m182 -18 c9 -7 33 -33 53 -57 21 -25 108 -119 194
-209 86 -90 157 -171 158 -180 1 -9 -21 -36 -49 -61 l-50 -45 -46 50 c-25 28
-121 128 -212 223 -91 96 -166 177 -168 181 -3 9 86 111 96 111 4 0 14 -6 24
-13z m-228 -13 c3 -8 2 -12 -4 -9 -6 3 -10 10 -10 16 0 14 7 11 14 -7z m-1491
-11 c-7 -2 -21 -2 -30 0 -10 3 -4 5 12 5 17 0 24 -2 18 -5z m2734 -39 c-3 -3
-12 -4 -19 -1 -8 3 -5 6 6 6 11 1 17 -2 13 -5z m-2733 -13 c9 -13 -31 -44 -49
-38 -8 4 -15 11 -15 17 0 7 6 8 19 1 18 -10 31 -6 31 10 0 4 -8 10 -17 12 -14
4 -13 5 4 6 12 0 24 -3 27 -8z m2716 -21 c0 -5 -9 -14 -19 -20 -11 -5 -28 -24
-38 -40 -9 -17 -24 -30 -33 -30 -12 1 -12 3 3 14 10 8 15 20 11 30 -9 22 23
56 53 56 12 0 23 -4 23 -10z m-2702 -77 c-14 -16 -30 -37 -36 -48 -8 -13 -11
-15 -12 -5 0 8 14 29 32 47 38 40 52 44 16 6z m329 -22 c9 8 13 8 13 0 0 -6
13 -11 29 -11 24 0 29 -5 35 -31 3 -17 6 -47 6 -65 l0 -34 -56 0 c-34 0 -53
-4 -49 -10 3 -5 24 -10 46 -10 24 0 38 -4 34 -10 -9 -14 -68 -13 -83 2 -7 7
-12 44 -12 97 0 65 3 82 12 73 8 -8 15 -9 25 -1z m-241 -47 c9 -34 -23 -68
-52 -57 -16 6 -15 8 11 13 16 3 31 12 33 21 4 20 -29 34 -39 17 -4 -7 -11 -10
-14 -6 -8 8 23 38 41 38 7 0 17 -12 20 -26z m2304 -159 c0 -18 -31 -35 -65
-35 -36 0 -27 21 16 36 45 17 49 16 49 -1z m-156 -16 c5 -5 -3 -13 -20 -19
-16 -6 -32 -16 -36 -23 -4 -6 -9 0 -13 15 -4 15 -4 32 0 37 7 12 53 5 69 -10z
m-934 -43 c0 -19 7 -25 33 -30 92 -18 203 -100 245 -183 56 -109 50 -255 -14
-355 -20 -31 -34 -46 -34 -35 0 10 -5 15 -10 12 -6 -4 -8 -15 -5 -24 4 -12 -2
-21 -20 -29 -15 -7 -25 -8 -25 -2 0 6 7 10 16 10 10 0 14 6 11 14 -3 8 3 22
13 31 10 9 28 48 40 86 39 119 14 232 -71 324 -23 25 -45 45 -48 45 -4 0 -15
-13 -24 -30 -18 -29 -17 -30 3 -52 34 -36 51 -76 57 -133 8 -78 -3 -121 -45
-167 -72 -80 -170 -100 -263 -53 -50 26 -61 35 -111 92 -14 17 -35 36 -45 41
-14 9 -16 13 -5 23 15 16 16 61 0 77 -16 16 -48 -3 -48 -29 0 -12 6 -33 14
-47 8 -15 26 -57 41 -94 32 -81 78 -136 136 -165 57 -28 143 -38 198 -23 43
11 70 7 35 -7 -10 -3 -22 -11 -26 -17 -4 -7 -42 -11 -91 -11 -74 1 -92 4 -149
33 -80 39 -138 94 -175 164 -25 47 -28 64 -28 148 0 82 4 103 27 152 31 67
105 145 163 172 21 11 72 24 112 29 66 10 73 13 73 34 0 13 5 23 10 23 6 0 10
-11 10 -24z m-1203 -18 c-3 -7 -5 -2 -5 12 0 14 2 19 5 13 2 -7 2 -19 0 -25z
m260 -50 c-3 -8 -6 -5 -6 6 -1 11 2 17 5 13 3 -3 4 -12 1 -19z m-300 -56 c39
-47 24 -106 -36 -136 -25 -13 -31 -13 -59 4 -39 24 -58 81 -39 119 26 56 94
62 134 13z m2177 22 c11 -29 6 -35 -26 -32 -25 2 -34 8 -36 26 -3 18 1 22 26
22 18 0 32 -6 36 -16z m-239 -105 c10 -14 1 -21 -19 -13 -9 3 -13 10 -10 15 7
12 21 11 29 -2z m-29 -54 c1 -8 -2 -15 -7 -15 -5 0 -9 10 -9 22 0 23 12 17 16
-7z m419 4 c4 -13 0 -27 -11 -40 -16 -18 -16 -19 4 -19 21 0 22 -4 22 -94 0
-73 3 -96 16 -107 31 -25 49 1 54 82 5 76 16 90 37 48 23 -43 16 -114 -13
-148 -35 -42 -92 -44 -123 -5 -19 24 -21 40 -21 159 0 72 3 135 7 138 12 12
22 7 28 -14z m-2018 5 c-3 -3 -12 -4 -19 -1 -8 3 -5 6 6 6 11 1 17 -2 13 -5z
m0 -40 c-3 -3 -12 -4 -19 -1 -8 3 -5 6 6 6 11 1 17 -2 13 -5z m1857 -20 c17
-16 23 -89 7 -80 -5 3 -12 -1 -15 -10 -4 -10 -16 -14 -33 -12 -22 2 -29 9 -31
32 -5 41 5 74 26 79 29 8 30 8 46 -9z m-1247 -81 c-3 -10 -5 -2 -5 17 0 19 2
27 5 18 2 -10 2 -26 0 -35z m-607 23 c0 -2 -7 -7 -16 -10 -8 -3 -12 -2 -9 4 6
10 25 14 25 6z m1650 -35 c5 -11 10 -26 9 -33 0 -7 -5 0 -11 15 -8 23 -15 28
-37 25 -23 -3 -26 -8 -29 -49 -5 -72 40 -91 73 -30 8 15 14 20 15 11 0 -9 -7
-26 -16 -38 -18 -26 -69 -30 -78 -6 -10 27 -7 99 6 112 18 18 56 14 68 -7z
m-1376 -67 c10 -25 -1 -29 -14 -5 -6 12 -7 21 -1 21 5 0 12 -7 15 -16z m-584
-13 c0 -6 -4 -13 -10 -16 -5 -3 -10 1 -10 9 0 9 5 16 10 16 6 0 10 -4 10 -9z
m464 -34 c154 -77 247 -236 233 -401 -5 -70 -33 -146 -52 -146 -7 0 -16 -6
-19 -12 -4 -7 -3 10 1 37 4 28 8 91 8 140 0 79 -3 97 -29 149 -37 76 -96 135
-172 172 -51 25 -70 29 -144 29 -76 0 -93 -4 -152 -33 -159 -78 -234 -255
-179 -419 12 -34 21 -65 21 -68 0 -13 -48 -3 -63 13 -47 51 -49 237 -4 335 28
61 113 159 162 185 80 45 149 62 232 59 71 -3 92 -8 157 -40z m1668 -99 c2
-50 6 -63 21 -66 15 -3 17 5 17 58 0 59 1 61 23 54 33 -10 105 -71 134 -115
37 -56 43 -143 13 -203 -15 -32 -30 -48 -48 -53 -35 -10 -330 -10 -362 -1 -41
12 -60 56 -60 138 0 84 12 111 73 167 50 46 78 63 122 74 63 15 64 14 67 -53z
m-1720 -19 c101 -51 158 -141 158 -248 0 -37 -5 -83 -10 -103 -27 -95 -146
-185 -258 -195 -109 -10 -228 62 -276 167 -29 64 -28 168 3 237 25 56 93 127
139 144 81 31 179 30 244 -2z m2266 -11 c17 -17 15 -35 -5 -42 -21 -8 -48 17
-40 38 8 19 28 21 45 4z m-1030 -246 c8 -6 2 -9 -18 -9 -20 0 -26 3 -18 9 7 4
15 8 18 8 3 0 11 -4 18 -8z m-768 -53 c0 -6 -4 -7 -10 -4 -5 3 -10 -2 -11 -12
0 -11 -3 -13 -6 -5 -7 18 5 44 17 37 5 -3 10 -11 10 -16z m717 -26 c-3 -10 -5
-4 -5 12 0 17 2 24 5 18 2 -7 2 -21 0 -30z m69 -18 c-9 -14 -22 -25 -29 -24
-9 0 -8 2 1 6 7 3 18 16 23 30 5 14 12 23 16 20 3 -4 -2 -18 -11 -32z m457
-88 c-9 -15 -21 4 -15 25 5 21 6 21 12 2 4 -10 5 -22 3 -27z m-91 -17 c44 -32
109 -41 149 -20 10 6 19 7 19 2 0 -15 -48 -32 -89 -32 -38 0 -131 49 -131 70
0 15 6 13 52 -20z m-384 -6 c13 -9 78 -82 144 -162 67 -81 158 -187 203 -237
44 -49 106 -121 138 -158 l57 -69 -31 -40 c-45 -57 -56 -58 -98 -10 -20 22
-123 140 -230 261 -106 122 -198 221 -204 221 -5 0 -3 8 6 18 31 34 16 83 -31
97 -17 5 -29 -1 -51 -24 l-29 -31 -161 0 -161 0 -29 32 c-22 25 -37 32 -65 32
-48 0 -71 -24 -71 -75 0 -32 6 -46 28 -65 l27 -23 0 -236 0 -235 -70 0 -70 0
0 299 c0 164 3 319 6 345 11 75 11 75 364 76 264 0 309 -2 328 -16z m-1695
-81 c74 -97 151 -149 267 -179 57 -14 65 -14 139 5 120 30 215 98 283 203 l30
48 27 -22 27 -23 -24 -42 c-84 -152 -239 -244 -409 -244 -45 0 -101 5 -125 11
-56 15 -144 63 -185 100 -35 32 -133 150 -133 161 0 14 43 60 50 52 4 -4 28
-36 53 -70z m2682 47 c-127 -38 -155 -56 -155 -101 0 -25 -3 -28 -29 -26 -29
2 -29 2 -11 27 51 70 143 120 220 119 31 0 29 -2 -25 -19z m726 -97 c46 -54
86 -100 89 -103 3 -3 39 -45 80 -95 40 -49 81 -98 89 -107 8 -10 11 -18 8 -18
-3 0 -45 44 -94 98 -167 185 -238 265 -250 281 -12 15 -17 41 -9 41 2 0 41
-44 87 -97z m-683 60 c-15 -2 -42 -2 -60 0 -18 2 -6 4 27 4 33 0 48 -2 33 -4z
m40 -28 c-3 -41 -11 -44 -26 -10 -6 14 -7 25 -3 25 5 0 12 -8 14 -17 3 -11 5
-7 6 10 0 15 3 27 6 27 3 0 5 -16 3 -35z m152 25 c0 -5 -2 -10 -4 -10 -3 0 -8
5 -11 10 -3 6 -1 10 4 10 6 0 11 -4 11 -10z m127 -57 c14 -24 23 -47 19 -50
-3 -4 -6 -2 -6 4 0 6 -16 35 -35 63 -20 29 -29 47 -20 40 9 -7 28 -33 42 -57z
m-417 53 c0 -2 -13 -9 -30 -15 -35 -12 -41 -5 -7 9 25 10 37 12 37 6z m260
-12 c0 -8 -5 -12 -10 -9 -6 4 -8 11 -5 16 9 14 15 11 15 -7z m75 -23 c-9 -36
-22 -48 -37 -33 -9 9 -9 12 0 12 7 0 12 13 12 30 0 23 4 28 16 23 11 -4 14
-13 9 -32z m-75 -38 c0 -7 -4 -13 -10 -13 -5 0 -10 12 -10 28 0 21 2 24 10 12
5 -8 10 -21 10 -27z m-1716 9 c2 -4 1 -14 -4 -22 -7 -11 -12 -12 -21 -3 -6 6
-8 16 -5 22 8 13 23 14 30 3z m1836 -22 c0 -22 -5 -30 -17 -30 -14 0 -15 2 -4
9 8 5 11 16 6 30 -4 12 -2 21 4 21 6 0 11 -13 11 -30z m275 1 c3 -5 -4 -12
-15 -16 -13 -4 -20 -15 -20 -31 0 -22 4 -25 28 -22 23 3 27 7 25 32 -2 27 -1
27 12 10 17 -22 19 -50 5 -59 -5 -3 -10 -40 -10 -81 0 -41 -3 -74 -7 -74 -21
1 -32 19 -38 63 -7 44 -6 49 14 54 27 7 28 23 1 23 -28 0 -60 35 -60 65 0 33
49 60 65 36z m-330 -32 c-4 -5 -13 -9 -21 -9 -12 0 -12 2 -2 14 14 15 32 11
23 -5z m-60 1 c3 -5 -1 -10 -9 -10 -9 0 -16 5 -16 10 0 6 4 10 9 10 6 0 13 -4
16 -10z m195 -50 c4 -22 3 -40 -1 -40 -5 0 -9 6 -9 14 0 7 -3 29 -6 47 -4 19
-3 31 1 27 4 -4 11 -25 15 -48z m-196 -11 c-8 -13 -24 -1 -24 18 0 13 3 13 15
3 8 -7 12 -16 9 -21z m56 16 c0 -8 -4 -15 -10 -15 -5 0 -10 7 -10 15 0 8 5 15
10 15 6 0 10 -7 10 -15z m60 0 c0 -8 -9 -15 -20 -15 -17 0 -19 2 -8 15 17 19
28 19 28 0z m-440 -105 c0 -79 0 -80 -25 -80 -24 0 -25 2 -25 73 0 79 3 87 32
87 16 0 18 -9 18 -80z m100 14 c0 -34 -4 -53 -10 -49 -5 3 -10 28 -10 56 0 27
5 49 10 49 6 0 10 -25 10 -56z m60 6 c0 -43 -3 -50 -20 -50 -17 0 -20 7 -20
50 0 43 3 50 20 50 17 0 20 -7 20 -50z m220 24 c0 -8 -4 -14 -10 -14 -5 0 -10
9 -10 21 0 11 5 17 10 14 6 -3 10 -13 10 -21z m-712 -151 c-11 -14 -13 -13
-19 8 -4 13 -7 50 -8 81 -1 46 2 57 17 60 15 3 17 -6 20 -65 2 -45 -1 -74 -10
-84z m647 146 c4 -6 5 -12 2 -15 -7 -7 -37 7 -37 17 0 13 27 11 35 -2z m125
-24 c0 -19 -4 -35 -8 -35 -4 0 -8 16 -8 35 0 19 4 35 8 35 4 0 8 -16 8 -35z
m88 0 c0 -23 -5 -35 -14 -35 -17 0 -17 1 -5 34 7 17 7 26 -2 30 -7 2 -5 5 5 5
12 1 16 -8 16 -34z m-208 -26 c0 -5 -4 -9 -10 -9 -5 0 -10 7 -10 16 0 8 5 12
10 9 6 -3 10 -10 10 -16z m65 1 c-3 -5 -10 -10 -16 -10 -5 0 -9 5 -9 10 0 6 7
10 16 10 8 0 12 -4 9 -10z m-60 -51 c4 -6 5 -12 2 -15 -7 -7 -37 7 -37 17 0
13 27 11 35 -2z m115 -4 c0 -6 -18 -11 -40 -10 -22 0 -40 5 -40 10 0 6 18 10
40 10 22 0 40 -4 40 -10z m90 -6 c0 -24 -23 -21 -28 4 -2 10 3 17 12 17 10 0
16 -9 16 -21z m-3243 -286 c-1 -49 -3 -9 -3 87 0 96 2 136 3 88 2 -49 2 -127
0 -175z m53 155 c0 -57 3 -133 7 -170 5 -59 4 -68 -11 -68 -14 0 -16 19 -16
170 0 107 4 170 10 170 6 0 10 -41 10 -102z m59 -68 c2 -114 -1 -170 -8 -170
-7 0 -11 57 -11 170 0 94 4 170 9 170 4 0 9 -76 10 -170z m2981 149 c0 -5 -4
-9 -10 -9 -5 0 -10 7 -10 16 0 8 5 12 10 9 6 -3 10 -10 10 -16z m144 -14 c-4
-17 -10 -23 -16 -17 -6 6 -5 17 3 30 17 27 22 22 13 -13z m-2294 -94 c0 -65 3
-140 7 -166 5 -38 3 -47 -8 -43 -11 4 -14 38 -16 166 -2 100 1 162 7 162 6 0
10 -49 10 -119z m59 -143 c1 -40 -3 -68 -9 -68 -6 0 -9 61 -8 168 1 160 2 163
8 67 4 -55 8 -130 9 -167z m51 227 c0 -19 -4 -35 -10 -35 -5 0 -10 16 -10 35
0 19 5 35 10 35 6 0 10 -16 10 -35z m1980 19 c0 -17 -22 -14 -28 4 -2 7 3 12
12 12 9 0 16 -7 16 -16z m120 1 c0 -8 -4 -15 -9 -15 -13 0 -22 16 -14 24 11
11 23 6 23 -9z m491 -41 l24 -26 -32 19 c-30 17 -33 17 -49 1 -10 -9 -17 -31
-17 -49 0 -29 -2 -30 -14 -13 -19 26 -16 42 12 69 31 32 46 31 76 -1z m-2751
-135 c0 -77 -4 -138 -8 -135 -5 3 -8 36 -7 73 2 37 3 98 4 136 0 37 3 67 6 67
3 0 5 -63 5 -141z m2140 126 c0 -8 -7 -15 -16 -15 -14 0 -14 3 -4 15 7 8 14
15 16 15 2 0 4 -7 4 -15z m70 -6 c0 -5 -7 -9 -15 -9 -15 0 -20 12 -9 23 8 8
24 -1 24 -14z m-265 -40 l100 -5 -112 -2 c-119 -2 -123 0 -106 45 6 16 8 15
13 -7 6 -24 9 -25 105 -31z m315 41 c0 -5 -7 -10 -16 -10 -8 0 -12 5 -9 10 3
6 10 10 16 10 5 0 9 -4 9 -10z m-3203 -37 c-3 -10 -5 -4 -5 12 0 17 2 24 5 18
2 -7 2 -21 0 -30z m1097 -105 c-4 -68 -10 -112 -12 -98 -5 32 8 233 15 226 3
-3 2 -60 -3 -128z m1416 122 c0 -5 -2 -10 -4 -10 -3 0 -8 5 -11 10 -3 6 -1 10
4 10 6 0 11 -4 11 -10z m1181 -32 c-36 -28 -57 -22 -25 7 14 13 31 22 37 18 6
-4 1 -14 -12 -25z m-963 -16 c27 -26 38 -29 127 -35 54 -4 99 -8 101 -10 2 -1
0 -13 -3 -26 -6 -22 -10 -23 -56 -17 -62 7 -143 45 -182 86 -36 38 -26 40 13
2z m472 18 c0 -5 -4 -10 -10 -10 -5 0 -10 5 -10 10 0 6 5 10 10 10 6 0 10 -4
10 -10z m-110 -7 c0 -5 -4 -14 -9 -22 -7 -11 -11 -9 -20 8 -10 18 -9 21 9 21
11 0 20 -3 20 -7z m53 -13 c3 -11 1 -20 -4 -20 -5 0 -9 2 -9 4 0 2 -3 11 -6
20 -3 9 -2 16 4 16 5 0 12 -9 15 -20z m397 -25 c-13 -14 -25 -23 -28 -21 -5 6
31 44 42 45 5 1 -1 -10 -14 -24z m125 -45 c-28 -12 -37 -12 -30 0 3 6 16 10
28 9 21 0 21 -1 2 -9z m-195 -15 c-7 -8 -18 -15 -24 -15 -6 0 -2 7 8 15 25 19
32 19 16 0z m-939 -62 c65 -75 297 -340 383 -438 33 -38 115 -130 181 -204 66
-74 164 -184 217 -245 53 -61 150 -171 215 -243 65 -73 186 -209 268 -302 83
-94 160 -173 171 -176 24 -7 672 -11 1212 -7 l353 2 -58 72 c-32 40 -72 89
-90 108 -55 61 -133 161 -148 191 -17 32 -25 35 -43 17 -12 -12 -32 7 -152
152 -33 41 -79 96 -100 122 -50 59 -52 76 -4 23 91 -99 114 -125 177 -197 70
-82 77 -86 51 -37 -15 30 -15 31 32 82 27 29 51 54 54 57 3 3 22 24 42 47 l36
41 44 -51 c24 -28 42 -55 40 -60 -1 -4 35 -49 81 -100 72 -80 137 -158 274
-325 l35 -44 31 29 30 28 -21 -32 c-12 -17 -22 -34 -22 -37 0 -3 28 -38 63
-77 123 -143 189 -223 203 -251 l15 -28 -791 0 -790 0 0 41 c0 35 3 40 19 34
12 -4 23 2 34 18 l15 24 585 -2 584 -2 30 -22 c26 -19 33 -21 56 -10 34 15 42
41 25 76 -10 21 -22 29 -48 32 -30 3 -45 15 -107 90 -40 47 -107 127 -150 176
-43 50 -95 110 -115 135 -20 25 -39 42 -43 38 -6 -6 31 -53 238 -298 76 -89
127 -158 125 -168 -3 -16 -51 -17 -594 -20 -517 -2 -593 0 -604 13 -15 19 -29
19 -49 1 -22 -18 -501 -30 -501 -11 0 6 -9 21 -20 33 -29 31 -80 29 -110 -3
l-23 -24 -16 29 c-16 29 -83 106 -356 410 -192 213 -515 579 -543 614 -12 16
-25 26 -29 23 -9 -10 2 -22 476 -556 350 -393 459 -524 465 -556 14 -75 102
-99 141 -38 l20 32 178 3 c97 1 203 2 235 3 l57 0 3 -58 3 -58 -347 3 -347 3
-41 49 c-53 63 -466 531 -666 755 -85 96 -173 195 -195 220 -22 25 -98 111
-170 191 -172 192 -459 520 -463 529 -1 4 20 28 47 55 l49 48 61 -73 c34 -41
64 -84 67 -96 6 -23 24 -32 24 -13 0 6 9 10 19 10 11 0 23 5 26 10 4 7 -2 9
-17 5 -19 -5 -34 8 -97 80 l-74 86 44 45 c24 24 46 43 49 42 4 -2 31 -31 61
-65z m1559 42 c13 -14 21 -25 18 -25 -2 0 -15 11 -28 25 -13 14 -21 25 -18 25
2 0 15 -11 28 -25z m-423 -27 c-3 -7 -5 -2 -5 12 0 14 2 19 5 13 2 -7 2 -19 0
-25z m-288 2 c26 -13 31 -33 20 -74 -10 -37 -32 -46 -74 -30 -43 17 -37 86 8
104 29 11 26 11 46 0z m606 -15 c29 -28 31 -42 9 -73 -17 -24 -62 -30 -82 -10
-13 13 -17 90 -5 101 14 15 55 6 78 -18z m-4135 -605 l0 -610 -60 0 -60 0 0
550 0 550 30 0 30 0 0 60 0 60 30 0 30 0 0 -610z m700 560 c-8 -5 -22 -9 -30
-9 -10 0 -8 3 5 9 27 12 43 12 25 0z m3318 -56 c3 -36 0 -42 -20 -48 -35 -9
-38 -8 -38 13 0 16 -10 20 -58 26 -68 8 -228 4 -244 -6 -6 -4 -8 -14 -5 -22 4
-12 -1 -15 -24 -15 -35 1 -52 26 -43 62 7 31 27 33 259 32 l170 -1 3 -41z
m-865 1 c4 -8 2 -17 -3 -20 -6 -4 -10 3 -10 14 0 25 6 27 13 6z m407 -124 c0
-48 3 -109 6 -133 6 -45 6 -46 -20 -41 l-26 5 0 129 c0 122 1 129 20 129 18 0
20 -7 20 -89z m518 -40 c3 -122 -1 -140 -31 -141 -5 0 -7 61 -5 135 3 114 5
135 18 133 12 -3 16 -26 18 -127z m-3048 105 c0 -3 -4 -8 -10 -11 -5 -3 -10
-1 -10 4 0 6 5 11 10 11 6 0 10 -2 10 -4z m157 -35 l28 24 -22 -26 c-27 -30
-29 -49 -6 -49 9 0 14 -2 11 -5 -10 -10 -58 7 -58 20 0 7 -7 18 -16 25 -8 8
-20 23 -26 34 -7 14 2 9 26 -13 l36 -35 27 25z m-1012 19 c3 -5 2 -10 -4 -10
-5 0 -13 5 -16 10 -3 6 -2 10 4 10 5 0 13 -4 16 -10z m123 -10 c3 -9 -1 -11
-11 -7 -9 3 -26 -2 -38 -12 -22 -18 -22 -18 -3 -44 10 -15 27 -29 37 -32 21
-8 22 -21 2 -29 -9 -3 -15 0 -15 8 0 7 -11 23 -25 36 -22 21 -29 22 -45 12
-11 -7 -20 -9 -20 -5 1 11 26 43 33 43 3 0 18 12 32 26 26 26 45 28 53 4z
m3050 -13 c26 -25 28 -57 5 -85 -28 -31 -56 -35 -86 -11 -45 35 -32 103 23
121 18 6 27 2 58 -25z m560 -44 c1 -42 0 -90 -3 -105 l-7 -28 -105 0 c-92 0
-104 2 -99 16 3 9 6 56 6 105 l0 89 103 0 102 0 3 -77z m-2911 45 c-3 -8 -6
-5 -6 6 -1 11 2 17 5 13 3 -3 4 -12 1 -19z m3293 -63 c0 -6 18 -36 40 -65 38
-52 46 -75 23 -75 -14 0 -101 107 -113 141 -8 20 -8 29 2 35 14 9 48 -17 48
-36z m-3178 -20 c-34 -28 -42 -31 -42 -12 0 7 12 18 28 24 43 17 46 15 14 -12z
m-888 -40 c10 -7 15 -18 11 -24 -9 -16 -18 -13 -38 14 -20 28 -5 34 27 10z
m950 -1 c4 -11 2 -15 -8 -11 -8 3 -16 1 -18 -5 -3 -7 -10 -8 -18 -3 -10 6 -9
11 5 22 24 17 32 17 39 -3z m-332 -51 c61 -28 133 -95 169 -158 42 -72 36 -78
-9 -9 -85 131 -176 179 -337 179 -75 -1 -99 -5 -146 -27 -31 -14 -74 -42 -96
-62 -46 -41 -100 -136 -113 -198 l-9 -43 4 48 c11 114 112 238 228 279 73 26
242 21 309 -9z m-92 -56 l0 -52 -44 3 c-24 2 -70 -2 -101 -8 -48 -10 -66 -20
-106 -60 -35 -35 -52 -63 -61 -96 -7 -25 -17 -48 -23 -49 -5 -2 -22 -6 -37 -9
-41 -9 -34 -23 8 -18 28 3 35 1 32 -9 -7 -18 25 -82 72 -145 33 -44 38 -56 33
-90 -3 -21 -6 -40 -8 -42 -9 -10 -68 33 -99 71 -57 69 -80 131 -79 212 0 98
29 167 101 244 69 75 130 100 240 101 l72 0 0 -53z m98 6 c41 -19 104 -90 132
-149 12 -24 24 -71 27 -104 l6 -60 -44 0 c-32 0 -40 3 -29 10 8 5 25 10 38 10
12 0 22 5 22 10 0 6 -15 10 -33 10 -30 0 -34 4 -50 50 -21 59 -62 109 -111
135 -34 18 -36 23 -36 68 0 54 3 54 78 20z m3677 -24 c12 -18 -4 -57 -26 -64
-22 -7 -59 18 -59 42 0 7 9 22 20 33 16 16 25 18 40 10 10 -5 22 -15 25 -21z
m-989 -13 c8 -14 14 -35 12 -48 -2 -19 -10 -23 -46 -26 -38 -3 -43 -1 -53 25
-9 25 -7 31 16 50 34 29 51 29 71 -1z m598 11 c27 -20 18 -68 -16 -87 -57 -31
-94 38 -42 79 31 25 35 25 58 8z m-104 -76 c0 -20 -64 -72 -168 -135 -55 -33
-67 -37 -88 -28 -27 13 -42 57 -27 81 6 9 22 20 36 25 21 8 31 6 47 -9 11 -10
20 -25 20 -34 0 -10 10 -6 33 16 29 28 134 103 143 103 2 0 4 -8 4 -19z m-392
-33 c52 -41 109 -104 101 -113 -6 -5 -179 124 -179 134 0 9 11 21 18 21 3 0
30 -19 60 -42z m-2938 -49 c0 -10 -7 -19 -15 -19 -15 0 -21 31 -9 43 11 10 24
-3 24 -24z m-128 -31 c-5 -52 -8 -65 -16 -57 -7 7 6 109 14 109 4 0 5 -24 2
-52z m68 37 c0 -20 -21 -30 -31 -14 -13 21 -11 25 11 26 11 1 20 -4 20 -12z
m115 -4 c0 -23 -22 -24 -28 -1 -4 16 -1 20 11 18 9 -2 17 -10 17 -17z m53 -52
l-3 -54 -5 62 c-3 34 -1 58 3 54 5 -4 7 -32 5 -62z m-171 -33 c-4 -9 -11 -16
-17 -16 -11 0 -14 33 -3 44 11 10 26 -11 20 -28z m63 9 c0 -26 -14 -33 -25
-15 -9 14 1 40 15 40 5 0 10 -11 10 -25z m54 16 c7 -11 -3 -41 -14 -41 -11 0
-21 30 -14 41 3 5 9 9 14 9 5 0 11 -4 14 -9z m3681 -74 l0 -58 -56 -23 c-31
-12 -70 -32 -87 -44 -17 -12 -32 -19 -34 -15 -1 5 -24 19 -50 32 -27 13 -48
29 -48 35 1 6 26 31 56 55 60 48 141 81 189 78 30 -2 30 -3 30 -60z m204 32
c66 -29 115 -69 102 -82 -18 -18 -13 -40 8 -34 21 5 42 -25 67 -95 82 -229
-32 -459 -257 -519 -69 -18 -79 -11 -79 61 0 57 1 60 24 60 32 0 136 71 164
113 52 79 57 175 12 265 -34 66 -94 116 -157 128 -18 3 -36 11 -39 16 -3 5 -3
34 1 65 l7 55 51 -6 c29 -4 72 -16 96 -27z m-4066 -39 c4 -15 0 -20 -13 -20
-13 0 -17 5 -13 20 3 11 9 20 13 20 4 0 10 -9 13 -20z m65 -3 c2 -11 -3 -17
-16 -17 -15 0 -19 5 -15 20 6 24 26 21 31 -3z m68 2 c7 -12 -15 -31 -28 -23
-4 3 -8 12 -8 20 0 17 26 19 36 3z m49 1 c3 -6 -1 -13 -10 -16 -19 -8 -30 0
-20 15 8 14 22 14 30 1z m51 -17 c-10 -10 -19 5 -10 18 6 11 8 11 12 0 2 -7 1
-15 -2 -18z m200 0 c-3 -10 -8 -31 -12 -48 -14 -60 -79 -155 -107 -155 -4 0
-1 8 9 18 17 16 17 17 -1 21 -14 2 -15 5 -4 12 10 6 11 9 1 9 -10 0 -9 6 2 28
8 16 20 50 27 75 11 46 19 52 72 56 13 1 17 -4 13 -16z m-432 -49 c9 -22 8
-24 -9 -24 -8 0 -15 9 -15 20 0 24 15 27 24 4z m66 -10 c0 -8 -7 -14 -15 -14
-15 0 -21 21 -9 33 10 9 24 -2 24 -19z m60 0 c0 -8 -7 -14 -15 -14 -15 0 -21
21 -9 33 10 9 24 -2 24 -19z m46 -11 c-11 -11 -19 6 -11 24 8 17 8 17 12 0 3
-10 2 -21 -1 -24z m64 15 c0 -16 -3 -19 -11 -11 -6 6 -8 16 -5 22 11 17 16 13
16 -11z m2753 -14 c10 -10 -12 -44 -28 -44 -18 0 -28 17 -21 35 5 15 37 20 49
9z m286 -24 c17 -17 33 -46 37 -64 10 -58 -35 -117 -90 -115 l-31 1 29 8 c34
11 66 38 66 57 0 8 5 11 10 8 19 -12 10 42 -12 71 -34 44 -50 53 -90 54 -53 0
-90 -46 -85 -106 2 -24 7 -47 12 -51 4 -5 5 -2 0 6 -5 10 -4 12 4 7 6 -4 8
-12 5 -18 -4 -6 0 -14 7 -19 9 -6 10 -9 2 -9 -13 0 -39 24 -52 48 -4 9 -5 38
-2 65 7 59 42 85 113 86 39 1 51 -4 77 -29z m351 -7 l49 -36 -21 -41 c-12 -24
-23 -68 -26 -107 -4 -65 5 -98 55 -190 4 -7 -97 -83 -101 -77 -2 2 -24 44 -50
93 l-48 90 5 85 c3 58 11 101 26 135 20 44 47 85 58 85 2 0 26 -16 53 -37z
m-3500 -13 c12 -8 11 -10 -7 -10 -13 0 -23 5 -23 10 0 13 11 13 30 0z m50 0
c0 -5 -5 -10 -11 -10 -5 0 -7 5 -4 10 3 6 8 10 11 10 2 0 4 -4 4 -10z m60 -6
c0 -8 -5 -12 -10 -9 -6 4 -8 11 -5 16 9 14 15 11 15 -7z m2995 -10 c14 -15 25
-35 25 -45 0 -23 -34 -59 -55 -59 -49 0 -73 86 -33 114 30 21 35 20 63 -10z
m-3232 9 c-7 -2 -19 -2 -25 0 -7 3 -2 5 12 5 14 0 19 -2 13 -5z m64 1 c-3 -3
-12 -4 -19 -1 -8 3 -5 6 6 6 11 1 17 -2 13 -5z m168 -186 c0 -69 -4 -130 -8
-134 -4 -4 -62 -8 -130 -8 l-122 -1 -3 110 c-2 61 -1 124 2 140 l6 30 127 -5
128 -5 0 -127z m3605 66 c0 -28 3 -35 17 -32 11 2 20 15 23 32 5 28 7 29 68
32 l63 3 -20 -28 c-11 -15 -27 -34 -36 -41 -22 -18 -19 -29 25 -81 22 -26 40
-50 40 -54 0 -3 -28 -5 -62 -3 -56 3 -63 5 -66 25 -3 21 -28 50 -37 41 -2 -2
-5 -18 -7 -36 -2 -30 -5 -32 -40 -32 l-38 0 0 93 c0 99 7 117 47 117 20 0 23
-5 23 -36z m-3169 -21 c13 -16 12 -17 -3 -4 -17 13 -22 21 -14 21 2 0 10 -8
17 -17z m-1021 -28 c0 -5 -5 -3 -10 5 -5 8 -10 20 -10 25 0 6 5 3 10 -5 5 -8
10 -19 10 -25z m-39 16 c-8 -5 -12 -19 -9 -35 4 -21 3 -24 -8 -15 -26 21 -16
59 15 59 13 0 13 -2 2 -9z m1035 -6 c6 -15 -11 -45 -26 -45 -12 0 -20 28 -14
45 8 19 33 19 40 0z m-876 -168 c0 -5 -4 -5 -10 -2 -5 3 -10 14 -10 23 0 15 2
15 10 2 5 -8 10 -19 10 -23z m740 -1 c0 -3 -4 -8 -10 -11 -5 -3 -10 -1 -10 4
0 6 5 11 10 11 6 0 10 -2 10 -4z m-806 -40 c79 -33 70 -158 -15 -202 -33 -17
-69 -11 -69 12 0 8 7 29 16 45 19 38 15 49 -14 38 -18 -7 -22 -14 -18 -31 l6
-23 -11 23 c-7 12 -16 22 -20 22 -12 0 1 84 14 92 9 6 8 8 -2 8 -11 0 -11 3
-1 15 16 19 70 19 114 1z m947 -1 c33 -18 49 -50 49 -99 0 -33 -35 -90 -49
-81 -4 2 -25 -5 -46 -16 -33 -18 -41 -19 -63 -8 -62 34 -87 99 -62 163 19 51
110 72 171 41z m3144 -50 c28 -14 58 -25 69 -25 12 0 16 -5 12 -16 -3 -9 -6
-36 -6 -60 0 -39 -2 -44 -23 -44 -37 0 -119 30 -157 58 -62 46 -62 46 -24 83
19 18 34 39 34 47 0 12 4 11 23 -2 12 -9 45 -28 72 -41z m774 -9 c13 -14 20
-29 17 -34 -3 -6 0 -12 6 -15 25 -8 -26 -62 -61 -65 -33 -3 -65 13 -56 28 3 5
1 11 -5 15 -16 10 -12 50 8 67 38 33 62 34 91 4z m-4759 -193 c0 -86 -1 -93
-20 -93 -18 0 -20 7 -20 79 0 89 4 108 25 108 12 0 15 -19 15 -94z m48 5 c-2
-59 -7 -93 -15 -95 -8 -3 -13 24 -15 91 -3 87 -1 96 15 96 16 0 17 -9 15 -92z
m552 -3 c0 -88 -1 -95 -20 -95 -18 0 -20 7 -20 88 0 90 3 102 27 102 10 0 13
-22 13 -95z m44 79 c3 -9 6 -51 6 -95 0 -64 -3 -79 -15 -79 -12 0 -15 14 -15
64 0 35 -3 78 -6 95 -5 24 -3 31 9 31 8 0 18 -7 21 -16z m506 -322 c0 -5 -7
-17 -15 -28 -14 -19 -14 -19 -15 2 0 11 3 24 7 27 9 10 23 9 23 -1z m-1660 -6
c0 -2 -3 -11 -6 -20 -9 -23 -24 -20 -24 4 0 11 7 20 15 20 8 0 15 -2 15 -4z
m4240 -10 c0 -15 -18 -31 -26 -23 -7 7 7 37 17 37 5 0 9 -6 9 -14z"/>
<path d="M2236 8619 c-37 -29 -36 -85 2 -122 15 -15 33 -27 40 -27 9 0 12
-175 12 -748 l0 -748 55 -27 c74 -36 83 -34 18 4 l-53 31 0 745 0 745 25 30
25 30 187 -2 c134 0 189 -4 195 -13 5 -8 8 -4 8 11 l0 22 -195 0 c-179 0 -195
1 -195 18 -1 22 -19 45 -47 60 -31 17 -47 15 -77 -9z m58 -45 c20 -8 9 -34
-15 -34 -21 0 -22 1 -13 24 7 18 7 18 28 10z"/>
<path d="M3900 7764 c0 -20 5 -45 12 -57 7 -14 12 -73 12 -157 0 -101 1 -111
3 -39 4 92 5 97 33 123 45 39 40 73 -15 124 l-45 41 0 -35z"/>
<path d="M4415 6513 c-138 -127 -246 -235 -241 -241 4 -3 41 28 84 69 42 41
108 105 147 141 38 37 67 69 65 72 -3 2 -28 -16 -55 -41z"/>
<path d="M8445 8595 c-14 -13 -25 -29 -25 -35 0 -7 -246 -10 -786 -10 -530 0
-783 -3 -779 -10 4 -7 266 -10 783 -10 l776 1 24 -31 c13 -17 23 -33 21 -35
-77 -85 -1936 -1934 -1961 -1951 -46 -29 -53 -29 -103 -4 -45 23 -45 23 -45
11 0 -5 21 -17 48 -27 26 -10 48 -19 50 -20 2 -1 -8 -20 -22 -41 -32 -48 -41
-90 -27 -125 16 -42 26 -34 41 30 10 48 41 125 57 142 2 2 22 -16 44 -40 l40
-45 -31 44 c-16 24 -30 47 -30 50 0 4 441 447 980 986 598 598 991 983 1007
989 69 22 92 79 52 130 -28 35 -80 36 -114 1z m75 -50 c0 -8 -7 -15 -15 -15
-8 0 -15 7 -15 15 0 8 7 15 15 15 8 0 15 -7 15 -15z"/>
<path d="M6500 8597 c-36 -18 -54 -61 -41 -97 7 -23 7 -31 -4 -37 -7 -5 -150
-141 -316 -303 -167 -163 -326 -317 -354 -344 -32 -30 -41 -43 -25 -35 24 12
145 127 526 501 l180 178 45 -6 c53 -7 84 13 94 63 6 28 2 38 -23 63 -34 33
-45 36 -82 17z m48 -65 c2 -7 -6 -12 -17 -12 -21 0 -27 11 -14 24 9 9 26 2 31
-12z"/>
<path d="M6150 6220 c-6 -12 -10 -33 -8 -48 2 -22 9 -28 36 -30 52 -5 76 30
56 82 -9 24 -71 21 -84 -4z"/>
<path d="M5758 5759 c-220 -215 -364 -349 -376 -349 -11 0 -31 -9 -46 -21 -38
-30 -35 -70 7 -103 46 -36 57 -47 105 -99 62 -68 63 -58 2 13 l-53 61 22 23
c23 25 29 84 9 104 -9 9 66 89 342 361 195 192 353 351 350 354 -3 3 -166
-152 -362 -344z m-371 -431 c-3 -7 -5 -2 -5 12 0 14 2 19 5 13 2 -7 2 -19 0
-25z"/>
<path d="M7490 8120 c-24 -24 -25 -41 -5 -80 30 -58 115 -31 115 36 0 16 -7
37 -14 47 -19 25 -30 21 -12 -5 32 -46 7 -98 -46 -98 -24 0 -48 32 -48 64 0
17 29 43 55 49 18 4 18 5 -2 6 -13 0 -32 -8 -43 -19z"/>
<path d="M7515 8091 c-6 -11 33 -36 42 -27 3 3 3 12 0 21 -7 17 -33 20 -42 6z"/>
<path d="M6576 7957 c-12 -9 -17 -23 -14 -42 2 -24 9 -30 38 -36 19 -4 38 -5
42 -3 14 9 9 62 -8 78 -19 19 -35 20 -58 3z"/>
<path d="M3610 7680 c0 -11 7 -20 16 -20 8 0 12 -4 9 -10 -3 -5 1 -10 11 -10
12 0 15 6 10 23 -3 12 -6 25 -6 30 0 4 -9 7 -20 7 -13 0 -20 -7 -20 -20z"/>
<path d="M6165 7410 c-38 -38 -66 -73 -62 -77 4 -4 32 18 63 48 45 44 56 51
64 39 15 -23 13 -28 -37 -81 l-47 -50 37 -37 37 -36 69 70 70 71 -62 62 -63
61 -69 -70z"/>
<path d="M6374 7434 c3 -9 6 -18 6 -20 0 -3 5 -2 10 1 16 10 12 35 -6 35 -11
0 -14 -5 -10 -16z"/>
<path d="M5980 7210 l-45 -40 29 -22 c16 -12 43 -37 59 -55 17 -18 33 -33 36
-33 4 0 12 14 18 30 13 35 33 40 33 9 0 -21 1 -21 27 5 l27 27 -63 60 c-35 32
-66 59 -70 59 -3 0 -26 -18 -51 -40z"/>
<path d="M5930 7090 c0 -5 7 -10 15 -10 8 0 15 5 15 10 0 6 -7 10 -15 10 -8 0
-15 -4 -15 -10z"/>
<path d="M5944 7046 c-4 -9 -4 -20 0 -23 3 -4 12 -1 18 5 9 9 9 15 0 24 -9 9
-13 7 -18 -6z"/>
<path d="M3058 7459 c-57 -42 -21 -149 49 -149 85 0 125 92 62 144 -37 31 -74
33 -111 5z m106 -21 c9 -12 16 -34 16 -47 0 -29 -36 -71 -61 -71 -25 0 -67 40
-74 72 -14 58 84 96 119 46z"/>
<path d="M3103 7413 c-19 -7 -16 -53 2 -53 8 0 15 8 15 18 0 14 2 15 10 2 8
-12 10 -11 10 6 0 23 -16 34 -37 27z"/>
<path d="M6577 7533 c-10 -10 -8 -51 3 -58 14 -9 50 32 44 50 -6 15 -35 20
-47 8z"/>
<path d="M6377 7027 c-4 -11 -5 -23 -1 -28 7 -13 34 -11 34 2 0 5 -4 8 -9 4
-5 -3 -11 5 -13 17 -3 21 -4 21 -11 5z"/>
<path d="M5812 6778 c-18 -18 -14 -38 8 -38 13 0 20 7 20 19 0 25 -13 34 -28
19z"/>
<path d="M3500 6700 c0 -13 7 -20 20 -20 13 0 20 7 20 20 0 13 -7 20 -20 20
-13 0 -20 -7 -20 -20z"/>
<path d="M2715 6710 c-8 -12 20 -24 35 -15 5 3 10 10 10 16 0 12 -37 12 -45
-1z"/>
<path d="M3070 6599 c0 -18 5 -20 42 -17 31 2 44 8 46 21 3 14 -4 17 -42 17
-40 0 -46 -3 -46 -21z"/>
<path d="M4978 6352 c-125 -125 -243 -240 -262 -255 -20 -15 -36 -33 -36 -39
0 -7 18 6 40 27 22 21 40 35 40 31 0 -5 80 72 178 170 210 212 277 283 271
289 -3 2 -107 -98 -231 -223z"/>
<path d="M2813 6349 c-12 -12 -7 -39 7 -39 12 0 19 25 11 38 -5 9 -10 9 -18 1z"/>
<path d="M3054 6195 c-17 -13 -16 -14 14 -4 33 11 41 19 19 19 -7 0 -22 -7
-33 -15z"/>
<path d="M3030 6151 c-52 -51 -52 -131 -1 -182 54 -53 114 -47 171 18 34 38
39 86 15 133 -22 43 -53 60 -108 60 -40 0 -54 -5 -77 -29z"/>
<path d="M4435 5769 c-7 -10 10 -28 28 -29 12 0 8 17 -7 29 -11 9 -16 9 -21 0z"/>
<path d="M4515 5686 c10 -17 32 -41 48 -55 17 -14 36 -32 41 -39 39 -45 200
-202 204 -198 2 3 -66 76 -153 163 -87 87 -150 145 -140 129z"/>
<path d="M3950 5132 c-47 -25 -84 -92 -76 -135 15 -79 71 -131 142 -129 57 0
107 31 132 82 18 38 20 39 30 17 10 -22 11 -21 11 5 1 15 -5 31 -12 35 -7 4
-27 31 -44 58 -37 58 -57 72 -110 80 -27 4 -48 1 -73 -13z m141 -41 c28 -28
39 -47 39 -69 0 -106 -114 -169 -189 -106 -41 34 -58 92 -41 134 20 48 65 80
112 80 34 0 47 -7 79 -39z"/>
<path d="M4140 5083 c12 -16 33 -46 46 -68 13 -22 24 -33 24 -23 0 15 -74 118
-86 118 -3 0 4 -12 16 -27z"/>
<path d="M3780 5023 c0 -16 5 -35 10 -43 7 -11 10 -4 10 28 0 23 -4 42 -10 42
-5 0 -10 -12 -10 -27z"/>
<path d="M3818 5020 c5 -35 22 -30 22 6 0 13 -6 24 -13 24 -9 0 -12 -10 -9
-30z"/>
<path d="M2732 5203 c2 -10 12 -18 23 -18 11 0 21 8 23 18 3 13 -3 17 -23 17
-20 0 -26 -4 -23 -17z"/>
<path d="M4927 5064 c-14 -15 -7 -74 10 -81 21 -8 55 33 51 61 -3 21 -46 35
-61 20z"/>
<path d="M4880 4760 c0 -43 3 -50 20 -50 17 0 20 7 20 50 0 43 -3 50 -20 50
-17 0 -20 -7 -20 -50z"/>
<path d="M4798 4642 c-33 -4 -44 -34 -29 -75 16 -41 31 -32 31 18 0 33 4 45
15 45 11 0 15 -12 15 -50 l0 -50 105 0 105 0 0 51 c0 36 4 49 13 46 7 -2 12
-22 11 -51 0 -37 3 -46 15 -44 21 4 36 49 27 82 -6 25 -8 26 -89 27 -45 0
-107 1 -137 2 -30 1 -67 1 -82 -1z"/>
<path d="M3048 4623 c-76 -79 -88 -98 -88 -148 0 -45 18 -80 62 -123 28 -26
43 -33 79 -34 122 -2 197 97 155 207 -22 55 -63 91 -116 100 -37 6 -40 9 -27
23 24 29 29 42 15 42 -8 0 -43 -30 -80 -67z m156 -57 c39 -37 51 -71 43 -121
-8 -52 -67 -123 -67 -82 0 8 -14 33 -31 56 l-30 42 36 51 c20 27 34 53 31 56
-10 10 -55 -40 -68 -75 -7 -18 -15 -33 -19 -33 -4 0 -10 22 -14 50 -13 92 -25
64 -25 -56 l0 -118 -31 30 c-17 16 -38 44 -46 62 -28 67 24 156 97 165 81 9
89 8 124 -27z m-69 -157 c37 -45 31 -73 -17 -77 l-38 -3 0 40 c0 43 8 71 20
71 5 0 20 -14 35 -31z"/>
<path d="M5120 3315 c0 -13 269 -325 280 -325 4 0 10 -14 14 -32 12 -61 57
-86 89 -50 40 44 7 98 -54 88 -35 -6 -39 -3 -85 52 -27 31 -65 75 -86 97 -20
22 -60 69 -88 105 -48 61 -70 81 -70 65z"/>
<path d="M7920 2471 c-43 -36 -78 -91 -57 -91 15 0 37 23 81 83 32 44 23 48
-24 8z"/>
<path d="M5913 3543 c-26 -10 -9 -83 18 -83 16 0 39 33 39 55 0 29 -26 41 -57
28z"/>
<path d="M6494 3536 c-9 -24 4 -63 23 -71 22 -8 55 30 51 59 -4 27 -65 36 -74
12z"/>
<path d="M5710 3326 c-18 -23 -8 -61 17 -64 26 -4 50 35 40 62 -8 20 -41 21
-57 2z"/>
<path d="M6180 3281 l0 -49 40 -7 c21 -4 44 -4 50 0 5 3 10 28 10 56 l0 49
-50 0 -50 0 0 -49z"/>
<path d="M6900 3080 c0 -23 5 -30 19 -30 23 0 35 28 20 46 -20 24 -39 16 -39
-16z"/>
<path d="M5912 3078 c-7 -7 -12 -22 -12 -35 0 -18 6 -23 24 -23 33 0 50 23 36
49 -12 24 -30 27 -48 9z"/>
<path d="M6512 3078 c-17 -17 -15 -55 3 -62 22 -8 42 3 49 27 9 37 -26 61 -52
35z"/>
<path d="M6213 2938 c-33 -43 -12 -80 32 -60 30 14 32 33 7 55 -22 20 -27 21
-39 5z"/>
<path d="M6169 2639 c-15 -28 3 -69 30 -69 29 0 44 33 29 64 -14 32 -43 34
-59 5z"/>
<path d="M3626 2501 c-4 -7 -5 -15 -2 -18 9 -9 19 4 14 18 -4 11 -6 11 -12 0z"/>
<path d="M3590 2178 c0 -26 26 -52 45 -45 16 7 16 9 2 30 -17 25 -47 35 -47
15z"/>
<path d="M7507 2213 c-14 -13 -6 -53 12 -62 28 -16 56 9 47 42 -5 20 -13 27
-30 27 -12 0 -26 -3 -29 -7z"/>
</g>
</svg>
